HIERARCHY
ROOT Hips
{
	OFFSET -224.215500 91.524040 295.415894
	CHANNELS 6 Xposition Yposition Zposition Zrotation Yrotation Xrotation 
	JOINT LeftUpLeg
	{
		OFFSET 0.103456 1.857823 10.548498
		CHANNELS 3 Zrotation Yrotation Xrotation
		JOINT LeftLeg
		{
			OFFSET 43.500000 -0.000019 -0.000002
			CHANNELS 3 Zrotation Yrotation Xrotation
			JOINT LeftFoot
			{
				OFFSET 42.372204 0.000027 -0.000005
				CHANNELS 3 Zrotation Yrotation Xrotation
				JOINT LeftToe
				{
					OFFSET 17.299999 -0.000001 0.000000
					CHANNELS 3 Zrotation Yrotation Xrotation
					End Site
					{
						OFFSET 0.000000 0.000000 0.000000
					}
				}
			}
		}
	}
	JOINT RightUpLeg
	{
		OFFSET 0.103456 1.857824 -10.548502
		CHANNELS 3 Zrotation Yrotation Xrotation
		JOINT RightLeg
		{
			OFFSET 43.500038 -0.000015 0.000017
			CHANNELS 3 Zrotation Yrotation Xrotation
			JOINT RightFoot
			{
				OFFSET 42.372261 -0.000015 0.000015
				CHANNELS 3 Zrotation Yrotation Xrotation
				JOINT RightToe
				{
					OFFSET 17.299984 -0.000007 -0.000002
					CHANNELS 3 Zrotation Yrotation Xrotation
					End Site
					{
						OFFSET 0.000000 0.000000 0.000000
					}
				}
			}
		}
	}
	JOINT Spine
	{
		OFFSET 6.901968 -2.603745 -0.000005
		CHANNELS 3 Zrotation Yrotation Xrotation
		JOINT Spine1
		{
			OFFSET 12.588100 0.000014 0.000013
			CHANNELS 3 Zrotation Yrotation Xrotation
			JOINT Spine2
			{
				OFFSET 12.343204 0.000008 -0.000010
				CHANNELS 3 Zrotation Yrotation Xrotation
				JOINT Neck
				{
					OFFSET 25.832903 0.000002 0.000010
					CHANNELS 3 Zrotation Yrotation Xrotation
					JOINT Head
					{
						OFFSET 11.766598 0.000015 -0.000000
						CHANNELS 3 Zrotation Yrotation Xrotation
						End Site
						{
							OFFSET 0.000000 0.000000 0.000000
						}
					}
				}
				JOINT LeftShoulder
				{
					OFFSET 19.745903 -1.480366 6.000109
					CHANNELS 3 Zrotation Yrotation Xrotation
					JOINT LeftArm
					{
						OFFSET 11.284134 0.000001 -0.000017
						CHANNELS 3 Zrotation Yrotation Xrotation
						JOINT LeftForeArm
						{
							OFFSET 33.000042 0.000010 0.000015
							CHANNELS 3 Zrotation Yrotation Xrotation
							JOINT LeftHand
							{
								OFFSET 25.200022 0.000012 0.000000
								CHANNELS 3 Zrotation Yrotation Xrotation
								End Site
								{
									OFFSET 0.000000 0.000000 0.000000
								}
							}
						}
					}
				}
				JOINT RightShoulder
				{
					OFFSET 19.746094 -1.480373 -6.000069
					CHANNELS 3 Zrotation Yrotation Xrotation
					JOINT RightArm
					{
						OFFSET 11.284146 -0.000006 -0.000018
						CHANNELS 3 Zrotation Yrotation Xrotation
						JOINT RightForeArm
						{
							OFFSET 33.000103 0.000006 0.000016
							CHANNELS 3 Zrotation Yrotation Xrotation
							JOINT RightHand
							{
								OFFSET 25.199755 0.000126 0.000423
								CHANNELS 3 Zrotation Yrotation Xrotation
								End Site
								{
									OFFSET 0.000000 0.000000 0.000000
								}
							}
						}
					}
				}
			}
		}
	}
}
MOTION
Frames: 15
Frame Time: 0.033333
-224.215500 91.524040 295.415894 89.762917 -1.645378 91.870216 169.485522 -6.072421 100.550275 -5.436947 21.270912 -20.970525 7.174643 -82.057089 60.425027 53.195642 65.120663 35.461535 170.869915 2.048994 99.425552 -3.576489 21.841019 -23.665056 -84.826405 -60.289784 160.616430 133.357869 67.692975 114.530474 5.656334 0.260278 -99.138249 0.310840 -1.324735 -1.279606 0.336451 -1.020103 101.007081 7.093971 8.960815 -109.578254 -99.871870 16.787656 -19.902893 -71.043753 -83.250715 -28.481339 -19.686549 5.949987 0.621285 45.343035 -36.418590 -14.964416 -25.086188 25.038836 -5.656535 -98.122349 86.677057 94.704097 -1.967681 -17.955517 98.399975 -21.146032 -33.003990 -160.910009 -171.196381 30.045602 -147.991516
-224.213104 91.525101 295.416992 89.762901 -1.641775 91.878876 169.490603 -6.069328 100.556526 -5.433874 21.266181 -20.965338 7.186995 -82.054280 60.413490 53.196964 65.121214 35.462845 170.877758 2.048983 99.430156 -3.580914 21.840322 -23.666500 -84.817313 -60.285365 160.604524 133.345960 67.687100 114.509795 5.656335 0.262241 -99.143352 0.314602 -1.325399 -1.279928 0.340222 -1.020870 101.012347 7.119440 8.948708 -109.611642 -99.867008 16.810948 -19.928664 -71.090911 -83.247580 -28.430407 -19.696231 5.956205 0.623197 45.342307 -36.418976 -14.969018 -25.076764 25.023374 -5.650745 -98.112612 86.677005 95.586836 -1.678434 -17.991146 97.483947 -21.142836 -33.005892 -160.979733 -171.214047 30.048467 -148.055737
-224.199600 91.528313 295.420990 89.766769 -1.617269 91.930817 169.514834 -6.053020 100.602575 -5.434691 21.249868 -20.952154 7.273124 -82.044454 60.338332 53.194110 65.121491 35.460954 170.916576 2.055397 99.468584 -3.607824 21.836103 -23.675421 -84.789774 -60.270570 160.583609 133.317475 67.670349 114.457676 5.656334 0.271128 -99.171483 0.330145 -1.336442 -1.289695 0.355462 -1.032413 101.049444 7.225597 8.937949 -109.779875 -99.891018 16.917320 -20.062379 -71.296800 -83.226637 -28.215782 -19.738488 5.977495 0.636323 45.317526 -36.429257 -14.989070 -25.020208 24.950988 -5.620799 -98.238661 86.644823 98.920005 -0.525522 -18.095739 93.742911 -21.178410 -32.988722 -161.284194 -171.327840 30.063779 -148.466287
-224.185196 91.528473 295.421204 89.776329 -1.591967 91.988297 169.529147 -6.034128 100.663527 -5.462076 21.242043 -20.957767 7.358686 -82.040072 60.278114 53.193502 65.121895 35.460772 170.946362 2.074403 99.522165 -3.633336 21.842002 -23.695575 -84.792639 -60.256161 160.607436 133.316863 67.664533 114.451187 5.656334 0.276859 -99.204961 0.338761 -1.350151 -1.302914 0.363665 -1.046469 101.095550 7.300427 9.007350 -109.932586 -99.986477 16.999735 -20.192959 -71.339380 -83.219869 -28.171970 -19.761981 6.001779 0.646286 45.274106 -36.439349 -15.004142 -24.969433 24.885757 -5.593929 -98.630731 86.584219 100.951222 0.287575 -18.133340 91.002960 -21.264428 -32.958034 -161.498882 -171.443953 30.084172 -148.890468
-224.169800 91.527679 295.416901 89.788406 -1.574039 92.042900 169.532611 -6.010516 100.725207 -5.494798 21.235406 -20.967764 7.461058 -82.036372 60.207999 53.191764 65.123915 35.460804 170.965847 2.097793 99.575548 -3.655329 21.848630 -23.715233 -84.806451 -60.244310 160.647374 133.330146 67.664224 114.467503 5.656338 0.282952 -99.243251 0.348907 -1.358204 -1.310352 0.373688 -1.054879 101.140715 7.401423 9.059070 -110.104622 -100.068847 17.103338 -20.344332 -71.314806 -83.242903 -28.190713 -19.770247 6.063708 0.644977 45.240923 -36.447696 -15.030227 -24.938675 24.815274 -5.570523 -98.973295 86.545925 104.037982 1.432151 -18.114210 87.323046 -21.290222 -32.933340 -161.819955 -171.557384 30.084895 -149.285501
-224.154297 91.524780 295.409210 89.805298 -1.559028 92.083565 169.533252 -5.982313 100.774035 -5.514800 21.235212 -20.978357 7.544826 -82.033390 60.145358 53.186179 65.125080 35.457502 170.981472 2.122999 99.615108 -3.673416 21.850505 -23.727574 -84.843513 -60.237548 160.723695 133.374528 67.675664 114.534298 5.656334 0.290710 -99.271211 0.363251 -1.362716 -1.313985 0.387995 -1.059836 101.171662 7.525900 9.028904 -110.278334 -100.082809 17.222956 -20.490691 -71.347464 -83.287924 -28.145562 -19.769101 6.150451 0.634537 45.244550 -36.448870 -15.071913 -24.948445 24.746741 -5.556917 -99.037539 86.541110 108.111262 2.805530 -17.991914 83.012163 -21.247715 -32.916619 -162.261084 -171.672395 30.071059 -149.672050
-224.140305 91.519402 295.399689 89.824921 -1.541210 92.106483 169.536166 -5.957533 100.807329 -5.539938 21.241746 -20.996597 7.598527 -82.030681 60.108103 53.185891 65.121423 35.454956 171.003612 2.147703 99.632548 -3.684243 21.840740 -23.724343 -84.905894 -60.238992 160.842841 133.455436 67.702056 114.661511 5.656336 0.298889 -99.279048 0.378413 -1.369995 -1.320453 0.402815 -1.067614 101.196941 7.630351 8.948852 -110.426535 -100.052308 17.324445 -20.599768 -71.454546 -83.326872 -28.027749 -19.766463 6.215146 0.627634 45.285602 -36.436783 -15.121735 -25.001128 24.686766 -5.555110 -98.914426 86.549387 112.398305 4.187722 -17.767950 78.648430 -21.226425 -32.898801 -162.664636 -171.786095 30.063094 -150.060891
-224.127808 91.517677 295.388885 89.836037 -1.523530 92.117836 169.545214 -5.943229 100.825004 -5.558959 21.239836 -21.004309 7.681209 -82.026618 60.043173 53.179655 65.120353 35.449753 171.029751 2.164999 99.634966 -3.684119 21.818848 -23.704371 -84.926039 -60.255386 160.903042 133.500743 67.723854 114.739638 5.656330 0.306609 -99.274401 0.392174 -1.381719 -1.331350 0.415872 -1.079881 101.224115 7.663904 8.900651 -110.509327 -100.045796 17.364771 -20.645082 -71.581004 -83.309171 -27.900496 -19.783715 6.199953 0.641263 45.344839 -36.413997 -15.163722 -25.075311 24.647003 -5.562860 -98.938185 86.535186 115.042308 5.077007 -17.595494 75.748669 -21.280193 -32.872341 -162.961709 -171.903117 30.069500 -150.476370
-224.117401 91.519661 295.375793 89.841492 -1.515060 92.130272 169.549304 -5.931819 100.840015 -5.566815 21.227544 -20.997960 7.807576 -82.013434 59.931204 53.171507 65.119054 35.443020 171.058636 2.174605 99.626998 -3.677208 21.770885 -23.653952 -84.910697 -60.289468 160.925794 133.535131 67.746617 114.805029 5.660313 0.312070 -99.283188 0.401181 -1.392678 -1.341667 0.424324 -1.091229 101.256547 7.610831 8.921633 -110.509064 -100.095598 17.330892 -20.622866 -71.692481 -83.211515 -27.801860 -19.828299 6.098587 0.679363 45.408569 -36.396298 -15.197821 -25.152703 24.634480 -5.577645 -99.270341 86.477576 114.651101 5.058468 -17.672030 75.698909 -21.342727 -32.847461 -163.275340 -172.027401 30.080427 -150.922232
-224.110107 91.523888 295.360107 89.843750 -1.515420 92.153847 169.545687 -5.920126 100.864109 -5.566571 21.207123 -20.980647 7.983420 -81.992128 59.767395 53.158476 65.117268 35.432438 171.086819 2.176688 99.622387 -3.674523 21.705758 -23.586180 -84.874324 -60.334522 160.930877 133.563168 67.770927 114.863970 5.662249 0.316521 -99.309417 0.408369 -1.400077 -1.348420 0.431377 -1.098878 101.282432 7.511757 8.971712 -110.450600 -100.167719 17.250138 -20.553087 -71.756753 -83.093816 -27.751037 -19.881912 5.989024 0.720160 45.475459 -36.396131 -15.235283 -25.224696 24.641068 -5.595651 -99.713524 86.404896 112.854864 4.596710 -17.873925 77.060294 -21.380535 -32.820609 -163.622471 -172.147084 30.076763 -151.338486
-224.107605 91.527451 295.341797 89.844353 -1.519151 92.187737 169.531802 -5.911124 100.904276 -5.568941 21.189183 -20.965591 8.197028 -81.967964 59.564570 53.136406 65.114485 35.414673 171.108730 2.173285 99.631175 -3.680837 21.645539 -23.525709 -84.840535 -60.379194 160.938207 133.583587 67.795832 114.913940 5.663225 0.322733 -99.348201 0.419250 -1.405307 -1.352584 0.442396 -1.104377 101.302917 7.452261 8.986077 -110.422212 -100.209509 17.204767 -20.514245 -71.752577 -83.049848 -27.765564 -19.918164 5.967191 0.734571 45.539564 -36.417792 -15.282150 -25.283479 24.654495 -5.612249 -100.010469 86.376470 113.070918 4.775828 -17.899004 76.412598 -21.445558 -32.769780 -163.903789 -172.269121 30.060161 -151.751618
-224.110992 91.529160 295.319611 89.842911 -1.524164 92.219978 169.508837 -5.910029 100.950751 -5.578271 21.179025 -20.958820 8.339630 -81.946552 59.429369 53.130030 65.116719 35.411482 171.118236 2.166390 99.649483 -3.688848 21.601164 -23.481061 -84.817432 -60.420169 160.947938 133.598748 67.820413 114.956994 5.663885 0.331410 -99.386150 0.435377 -1.409220 -1.354898 0.458720 -1.108703 101.321795 7.472090 8.954360 -110.469723 -100.214230 17.234611 -20.551286 -71.720139 -83.099104 -27.804880 -19.926920 6.033178 0.719902 45.583013 -36.448536 -15.324151 -25.320759 24.668649 -5.624109 -100.127216 86.405718 116.119357 5.876533 -17.636089 72.843322 -21.590033 -32.679738 -164.030795 -172.396951 30.034036 -152.177471
-224.119003 91.530937 295.294098 89.837242 -1.536661 92.242714 169.476397 -5.916928 100.991072 -5.587647 21.170808 -20.952932 8.438890 -81.924237 59.333339 53.135777 65.121764 35.418867 171.122036 2.158590 99.656794 -3.681404 21.561673 -23.435320 -84.791134 -60.455311 160.934773 133.599265 67.837690 114.974554 5.664831 0.340834 -99.421873 0.452988 -1.413286 -1.357070 0.476441 -1.113237 101.346544 7.522359 8.918351 -110.553527 -100.215884 17.301678 -20.631339 -71.742482 -83.177961 -27.796833 -19.914754 6.108327 0.698077 45.581023 -36.483556 -15.342607 -25.325038 24.693606 -5.630951 -100.198085 86.458292 120.136091 7.278123 -17.175126 68.218846 -21.803311 -32.548887 -164.014043 -172.526169 29.990451 -152.593661
-224.129196 91.534790 295.268005 89.828941 -1.557934 92.257942 169.439425 -5.926117 101.020768 -5.585819 21.157885 -20.937896 8.585578 -81.895384 59.183260 53.130855 65.122726 35.415917 171.123287 2.149000 99.650454 -3.662168 21.511663 -23.373778 -84.745454 -60.493563 160.891525 133.594550 67.849928 114.980631 5.666718 0.347762 -99.459369 0.465348 -1.418421 -1.360633 0.488859 -1.118744 101.378341 7.507804 8.946376 -110.580922 -100.271166 17.316969 -20.669275 -71.798317 -83.214261 -27.769046 -19.902743 6.125493 0.690576 45.535427 -36.522879 -15.334895 -25.298943 24.736844 -5.635111 -100.354054 86.473424 121.760845 7.914849 -16.970245 66.023973 -22.016311 -32.398499 -163.976473 -172.651814 29.924944 -152.979170
-224.139801 91.541199 295.244507 89.819901 -1.580874 92.269440 169.407931 -5.933223 101.040225 -5.574610 21.136281 -20.911763 8.760170 -81.860049 59.003018 53.124644 65.121104 35.410382 171.123501 2.134903 99.639575 -3.644548 21.442306 -23.291938 -84.673336 -60.547902 160.829667 133.603572 67.866001 115.007650 5.670544 0.350621 -99.496474 0.468819 -1.427208 -1.368613 0.492190 -1.127685 101.413186 7.378812 9.085807 -110.502054 -100.422478 17.231383 -20.621884 -71.738133 -83.187170 -27.871928 -19.926250 6.084157 0.701000 45.488499 -36.560979 -15.315854 -25.261683 24.790379 -5.639095 -100.666287 86.416360 119.220283 7.247901 -17.340735 68.086616 -22.161366 -32.253593 -164.044116 -172.780334 29.848338 -153.367290
